<?xml version="1.0" encoding="UTF-8" standalone="no"?>
<!DOCTYPE svg PUBLIC "-//W3C//DTD SVG 1.1//EN"
 "http://www.w3.org/Graphics/SVG/1.1/DTD/svg11.dtd">
<!-- Generated by graphviz version 2.47.0 (20210316.0004)
 -->
<!-- Title: dependencies Pages: 1 -->
<svg width="574pt" height="211pt"
 viewBox="0.00 0.00 574.00 211.00" xmlns="http://www.w3.org/2000/svg" xmlns:xlink="http://www.w3.org/1999/xlink">
<g id="graph0" class="graph" transform="scale(1 1) rotate(0) translate(4 207)">
<title>dependencies</title>
<polygon fill="white" stroke="transparent" points="-4,4 -4,-207 570,-207 570,4 -4,4"/>
<text text-anchor="start" x="262.01" y="-42.4" font-family="Times-12" font-weight="bold" font-size="14.00">Legend</text>
<polygon fill="#ffffb3" stroke="transparent" points="49,-10 49,-30 69,-30 69,-10 49,-10"/>
<text text-anchor="start" x="72.63" y="-15.4" font-family="Times-12" font-size="14.00"> &#160;Declarations</text>
<polygon fill="#8dd3c7" stroke="transparent" points="162,-10 162,-30 182,-30 182,-10 162,-10"/>
<text text-anchor="start" x="185.73" y="-15.4" font-family="Times-12" font-size="14.00"> &#160;Module</text>
<polygon fill="#80b1d3" stroke="transparent" points="248,-10 248,-30 268,-30 268,-10 248,-10"/>
<text text-anchor="start" x="271.78" y="-15.4" font-family="Times-12" font-size="14.00"> &#160;Bootstrap</text>
<polygon fill="#fdb462" stroke="transparent" points="345,-10 345,-30 365,-30 365,-10 345,-10"/>
<text text-anchor="start" x="368.67" y="-15.4" font-family="Times-12" font-size="14.00"> &#160;Providers</text>
<polygon fill="#fb8072" stroke="transparent" points="441,-10 441,-30 461,-30 461,-10 441,-10"/>
<text text-anchor="start" x="464.73" y="-15.4" font-family="Times-12" font-size="14.00"> &#160;Exports</text>
<g id="clust1" class="cluster">
<title>cluster_DashboardModule</title>
<polygon fill="none" stroke="black" stroke-dasharray="1,5" points="8,-70 8,-195 558,-195 558,-70 8,-70"/>
</g>
<g id="clust3" class="cluster">
<title>cluster_DashboardModule_imports</title>
<polygon fill="none" stroke="black" points="204,-78 204,-130 550,-130 550,-78 204,-78"/>
</g>
<g id="clust6" class="cluster">
<title>cluster_DashboardModule_providers</title>
<polygon fill="none" stroke="black" points="16,-78 16,-130 196,-130 196,-78 16,-78"/>
</g>
<!-- TaskModule -->
<g id="node1" class="node">
<title>TaskModule</title>
<polygon fill="#8dd3c7" stroke="black" points="542.26,-122 539.26,-126 518.26,-126 515.26,-122 455.74,-122 455.74,-86 542.26,-86 542.26,-122"/>
<text text-anchor="middle" x="499" y="-99.8" font-family="Times,serif" font-size="14.00">TaskModule</text>
</g>
<!-- DashboardModule -->
<g id="node4" class="node">
<title>DashboardModule</title>
<polygon fill="#8dd3c7" stroke="black" points="394.19,-187 391.19,-191 370.19,-191 367.19,-187 273.81,-187 273.81,-151 394.19,-151 394.19,-187"/>
<text text-anchor="middle" x="334" y="-164.8" font-family="Times,serif" font-size="14.00">DashboardModule</text>
</g>
<!-- TaskModule&#45;&gt;DashboardModule -->
<g id="edge1" class="edge">
<title>TaskModule&#45;&gt;DashboardModule</title>
<path fill="none" stroke="black" d="M499,-122.11C499,-141.34 499,-169 499,-169 499,-169 404.5,-169 404.5,-169"/>
<polygon fill="black" stroke="black" points="404.5,-165.5 394.5,-169 404.5,-172.5 404.5,-165.5"/>
</g>
<!-- UserModule -->
<g id="node2" class="node">
<title>UserModule</title>
<polygon fill="#8dd3c7" stroke="black" points="437.98,-122 434.98,-126 413.98,-126 410.98,-122 352.02,-122 352.02,-86 437.98,-86 437.98,-122"/>
<text text-anchor="middle" x="395" y="-99.8" font-family="Times,serif" font-size="14.00">UserModule</text>
</g>
<!-- UserModule&#45;&gt;DashboardModule -->
<g id="edge2" class="edge">
<title>UserModule&#45;&gt;DashboardModule</title>
<path fill="none" stroke="black" d="M373.05,-122.11C373.05,-122.11 373.05,-140.99 373.05,-140.99"/>
<polygon fill="black" stroke="black" points="369.55,-140.99 373.05,-150.99 376.55,-140.99 369.55,-140.99"/>
</g>
<!-- WorkspaceModule -->
<g id="node3" class="node">
<title>WorkspaceModule</title>
<polygon fill="#8dd3c7" stroke="black" points="334.01,-122 331.01,-126 310.01,-126 307.01,-122 211.99,-122 211.99,-86 334.01,-86 334.01,-122"/>
<text text-anchor="middle" x="273" y="-99.8" font-family="Times,serif" font-size="14.00">WorkspaceModule</text>
</g>
<!-- WorkspaceModule&#45;&gt;DashboardModule -->
<g id="edge3" class="edge">
<title>WorkspaceModule&#45;&gt;DashboardModule</title>
<path fill="none" stroke="black" d="M304.08,-122.11C304.08,-122.11 304.08,-140.99 304.08,-140.99"/>
<polygon fill="black" stroke="black" points="300.58,-140.99 304.08,-150.99 307.58,-140.99 300.58,-140.99"/>
</g>
<!-- DashboardService -->
<g id="node5" class="node">
<title>DashboardService</title>
<ellipse fill="#fdb462" stroke="black" cx="106" cy="-104" rx="81.64" ry="18"/>
<text text-anchor="middle" x="106" y="-99.8" font-family="Times,serif" font-size="14.00">DashboardService</text>
</g>
<!-- DashboardService&#45;&gt;DashboardModule -->
<g id="edge4" class="edge">
<title>DashboardService&#45;&gt;DashboardModule</title>
<path fill="none" stroke="black" d="M106,-122.11C106,-141.34 106,-169 106,-169 106,-169 263.8,-169 263.8,-169"/>
<polygon fill="black" stroke="black" points="263.8,-172.5 273.8,-169 263.8,-165.5 263.8,-172.5"/>
</g>
</g>
</svg>
