<?xml version="1.0" encoding="UTF-8" standalone="no"?>
<!DOCTYPE svg PUBLIC "-//W3C//DTD SVG 1.1//EN"
 "http://www.w3.org/Graphics/SVG/1.1/DTD/svg11.dtd">
<!-- Generated by graphviz version 2.47.0 (20210316.0004)
 -->
<!-- Title: dependencies Pages: 1 -->
<svg width="504pt" height="284pt"
 viewBox="0.00 0.00 504.00 284.00" xmlns="http://www.w3.org/2000/svg" xmlns:xlink="http://www.w3.org/1999/xlink">
<g id="graph0" class="graph" transform="scale(1 1) rotate(0) translate(4 280)">
<title>dependencies</title>
<polygon fill="white" stroke="transparent" points="-4,4 -4,-280 500,-280 500,4 -4,4"/>
<text text-anchor="start" x="227.01" y="-42.4" font-family="Times-12" font-weight="bold" font-size="14.00">Legend</text>
<polygon fill="#ffffb3" stroke="transparent" points="14,-10 14,-30 34,-30 34,-10 14,-10"/>
<text text-anchor="start" x="37.63" y="-15.4" font-family="Times-12" font-size="14.00"> &#160;Declarations</text>
<polygon fill="#8dd3c7" stroke="transparent" points="127,-10 127,-30 147,-30 147,-10 127,-10"/>
<text text-anchor="start" x="150.73" y="-15.4" font-family="Times-12" font-size="14.00"> &#160;Module</text>
<polygon fill="#80b1d3" stroke="transparent" points="213,-10 213,-30 233,-30 233,-10 213,-10"/>
<text text-anchor="start" x="236.78" y="-15.4" font-family="Times-12" font-size="14.00"> &#160;Bootstrap</text>
<polygon fill="#fdb462" stroke="transparent" points="310,-10 310,-30 330,-30 330,-10 310,-10"/>
<text text-anchor="start" x="333.67" y="-15.4" font-family="Times-12" font-size="14.00"> &#160;Providers</text>
<polygon fill="#fb8072" stroke="transparent" points="406,-10 406,-30 426,-30 426,-10 406,-10"/>
<text text-anchor="start" x="429.73" y="-15.4" font-family="Times-12" font-size="14.00"> &#160;Exports</text>
<g id="clust1" class="cluster">
<title>cluster_TaskModule</title>
<polygon fill="none" stroke="black" stroke-dasharray="1,5" points="109,-70 109,-268 387,-268 387,-70 109,-70"/>
</g>
<g id="clust3" class="cluster">
<title>cluster_TaskModule_imports</title>
<polygon fill="none" stroke="black" points="259,-78 259,-130 379,-130 379,-78 259,-78"/>
</g>
<g id="clust6" class="cluster">
<title>cluster_TaskModule_providers</title>
<polygon fill="none" stroke="black" points="117,-78 117,-130 251,-130 251,-78 117,-78"/>
</g>
<g id="clust4" class="cluster">
<title>cluster_TaskModule_exports</title>
<polygon fill="none" stroke="black" points="199,-208 199,-260 303,-260 303,-208 199,-208"/>
</g>
<!-- SubtaskModule -->
<g id="node1" class="node">
<title>SubtaskModule</title>
<polygon fill="#8dd3c7" stroke="black" points="370.88,-122 367.88,-126 346.88,-126 343.88,-122 267.12,-122 267.12,-86 370.88,-86 370.88,-122"/>
<text text-anchor="middle" x="319" y="-99.8" font-family="Times,serif" font-size="14.00">SubtaskModule</text>
</g>
<!-- TaskModule -->
<g id="node2" class="node">
<title>TaskModule</title>
<polygon fill="#8dd3c7" stroke="black" points="294.26,-187 291.26,-191 270.26,-191 267.26,-187 207.74,-187 207.74,-151 294.26,-151 294.26,-187"/>
<text text-anchor="middle" x="251" y="-164.8" font-family="Times,serif" font-size="14.00">TaskModule</text>
</g>
<!-- SubtaskModule&#45;&gt;TaskModule -->
<g id="edge1" class="edge">
<title>SubtaskModule&#45;&gt;TaskModule</title>
<path fill="none" stroke="black" d="M280.72,-122.11C280.72,-122.11 280.72,-140.99 280.72,-140.99"/>
<polygon fill="black" stroke="black" points="277.22,-140.99 280.72,-150.99 284.22,-140.99 277.22,-140.99"/>
</g>
<!-- TaskService  -->
<g id="node3" class="node">
<title>TaskService </title>
<polygon fill="#fb8072" stroke="black" points="295.19,-252 206.81,-252 206.81,-216 295.19,-216 295.19,-252"/>
<text text-anchor="middle" x="251" y="-229.8" font-family="Times,serif" font-size="14.00">TaskService </text>
</g>
<!-- TaskModule&#45;&gt;TaskService  -->
<g id="edge2" class="edge">
<title>TaskModule&#45;&gt;TaskService </title>
<path fill="none" stroke="black" stroke-dasharray="5,2" d="M251,-187.11C251,-187.11 251,-205.99 251,-205.99"/>
<polygon fill="black" stroke="black" points="247.5,-205.99 251,-215.99 254.5,-205.99 247.5,-205.99"/>
</g>
<!-- TaskService -->
<g id="node4" class="node">
<title>TaskService</title>
<ellipse fill="#fdb462" stroke="black" cx="184" cy="-104" rx="58.53" ry="18"/>
<text text-anchor="middle" x="184" y="-99.8" font-family="Times,serif" font-size="14.00">TaskService</text>
</g>
<!-- TaskService&#45;&gt;TaskModule -->
<g id="edge3" class="edge">
<title>TaskService&#45;&gt;TaskModule</title>
<path fill="none" stroke="black" d="M225.19,-116.84C225.19,-116.84 225.19,-140.52 225.19,-140.52"/>
<polygon fill="black" stroke="black" points="221.69,-140.52 225.19,-150.52 228.69,-140.52 221.69,-140.52"/>
</g>
</g>
</svg>
