<?xml version="1.0" encoding="UTF-8" standalone="no"?>
<!DOCTYPE svg PUBLIC "-//W3C//DTD SVG 1.1//EN"
 "http://www.w3.org/Graphics/SVG/1.1/DTD/svg11.dtd">
<!-- Generated by graphviz version 2.47.0 (20210316.0004)
 -->
<!-- Title: dependencies Pages: 1 -->
<svg width="1549pt" height="211pt"
 viewBox="0.00 0.00 1549.00 211.00" xmlns="http://www.w3.org/2000/svg" xmlns:xlink="http://www.w3.org/1999/xlink">
<g id="graph0" class="graph" transform="scale(1 1) rotate(0) translate(4 207)">
<title>dependencies</title>
<polygon fill="white" stroke="transparent" points="-4,4 -4,-207 1545,-207 1545,4 -4,4"/>
<text text-anchor="start" x="749.51" y="-42.4" font-family="Times-12" font-weight="bold" font-size="14.00">Legend</text>
<polygon fill="#ffffb3" stroke="transparent" points="536.5,-10 536.5,-30 556.5,-30 556.5,-10 536.5,-10"/>
<text text-anchor="start" x="560.13" y="-15.4" font-family="Times-12" font-size="14.00"> &#160;Declarations</text>
<polygon fill="#8dd3c7" stroke="transparent" points="649.5,-10 649.5,-30 669.5,-30 669.5,-10 649.5,-10"/>
<text text-anchor="start" x="673.23" y="-15.4" font-family="Times-12" font-size="14.00"> &#160;Module</text>
<polygon fill="#80b1d3" stroke="transparent" points="735.5,-10 735.5,-30 755.5,-30 755.5,-10 735.5,-10"/>
<text text-anchor="start" x="759.28" y="-15.4" font-family="Times-12" font-size="14.00"> &#160;Bootstrap</text>
<polygon fill="#fdb462" stroke="transparent" points="832.5,-10 832.5,-30 852.5,-30 852.5,-10 832.5,-10"/>
<text text-anchor="start" x="856.17" y="-15.4" font-family="Times-12" font-size="14.00"> &#160;Providers</text>
<polygon fill="#fb8072" stroke="transparent" points="928.5,-10 928.5,-30 948.5,-30 948.5,-10 928.5,-10"/>
<text text-anchor="start" x="952.23" y="-15.4" font-family="Times-12" font-size="14.00"> &#160;Exports</text>
<g id="clust1" class="cluster">
<title>cluster_AppModule</title>
<polygon fill="none" stroke="black" stroke-dasharray="1,5" points="8,-70 8,-195 1533,-195 1533,-70 8,-70"/>
</g>
<g id="clust3" class="cluster">
<title>cluster_AppModule_imports</title>
<polygon fill="none" stroke="black" points="16,-78 16,-130 1525,-130 1525,-78 16,-78"/>
</g>
<!-- AuthModule -->
<g id="node1" class="node">
<title>AuthModule</title>
<polygon fill="#8dd3c7" stroke="black" points="1516.55,-122 1513.55,-126 1492.55,-126 1489.55,-122 1429.45,-122 1429.45,-86 1516.55,-86 1516.55,-122"/>
<text text-anchor="middle" x="1473" y="-99.8" font-family="Times,serif" font-size="14.00">AuthModule</text>
</g>
<!-- AppModule -->
<g id="node13" class="node">
<title>AppModule</title>
<polygon fill="#8dd3c7" stroke="black" points="765.66,-187 762.66,-191 741.66,-191 738.66,-187 682.34,-187 682.34,-151 765.66,-151 765.66,-187"/>
<text text-anchor="middle" x="724" y="-164.8" font-family="Times,serif" font-size="14.00">AppModule</text>
</g>
<!-- AuthModule&#45;&gt;AppModule -->
<g id="edge1" class="edge">
<title>AuthModule&#45;&gt;AppModule</title>
<path fill="none" stroke="black" d="M1473,-122.09C1473,-145.13 1473,-182 1473,-182 1473,-182 775.87,-182 775.87,-182"/>
<polygon fill="black" stroke="black" points="775.87,-178.5 765.87,-182 775.87,-185.5 775.87,-178.5"/>
</g>
<!-- CommentModule -->
<g id="node2" class="node">
<title>CommentModule</title>
<polygon fill="#8dd3c7" stroke="black" points="1411.27,-122 1408.27,-126 1387.27,-126 1384.27,-122 1296.73,-122 1296.73,-86 1411.27,-86 1411.27,-122"/>
<text text-anchor="middle" x="1354" y="-99.8" font-family="Times,serif" font-size="14.00">CommentModule</text>
</g>
<!-- CommentModule&#45;&gt;AppModule -->
<g id="edge2" class="edge">
<title>CommentModule&#45;&gt;AppModule</title>
<path fill="none" stroke="black" d="M1354,-122.28C1354,-143.32 1354,-175 1354,-175 1354,-175 775.82,-175 775.82,-175"/>
<polygon fill="black" stroke="black" points="775.82,-171.5 765.82,-175 775.82,-178.5 775.82,-171.5"/>
</g>
<!-- CommitmentsModule -->
<g id="node3" class="node">
<title>CommitmentsModule</title>
<polygon fill="#8dd3c7" stroke="black" points="1278.39,-122 1275.39,-126 1254.39,-126 1251.39,-122 1139.61,-122 1139.61,-86 1278.39,-86 1278.39,-122"/>
<text text-anchor="middle" x="1209" y="-99.8" font-family="Times,serif" font-size="14.00">CommitmentsModule</text>
</g>
<!-- CommitmentsModule&#45;&gt;AppModule -->
<g id="edge3" class="edge">
<title>CommitmentsModule&#45;&gt;AppModule</title>
<path fill="none" stroke="black" d="M1209,-122.11C1209,-141.34 1209,-169 1209,-169 1209,-169 775.77,-169 775.77,-169"/>
<polygon fill="black" stroke="black" points="775.77,-165.5 765.77,-169 775.77,-172.5 775.77,-165.5"/>
</g>
<!-- DashboardModule -->
<g id="node4" class="node">
<title>DashboardModule</title>
<polygon fill="#8dd3c7" stroke="black" points="1121.19,-122 1118.19,-126 1097.19,-126 1094.19,-122 1000.81,-122 1000.81,-86 1121.19,-86 1121.19,-122"/>
<text text-anchor="middle" x="1061" y="-99.8" font-family="Times,serif" font-size="14.00">DashboardModule</text>
</g>
<!-- DashboardModule&#45;&gt;AppModule -->
<g id="edge4" class="edge">
<title>DashboardModule&#45;&gt;AppModule</title>
<path fill="none" stroke="black" d="M1061,-122.02C1061,-139.37 1061,-163 1061,-163 1061,-163 775.66,-163 775.66,-163"/>
<polygon fill="black" stroke="black" points="775.66,-159.5 765.66,-163 775.66,-166.5 775.66,-159.5"/>
</g>
<!-- DatabaseModule -->
<g id="node5" class="node">
<title>DatabaseModule</title>
<polygon fill="#8dd3c7" stroke="black" points="982.35,-122 979.35,-126 958.35,-126 955.35,-122 871.65,-122 871.65,-86 982.35,-86 982.35,-122"/>
<text text-anchor="middle" x="927" y="-99.8" font-family="Times,serif" font-size="14.00">DatabaseModule</text>
</g>
<!-- DatabaseModule&#45;&gt;AppModule -->
<g id="edge5" class="edge">
<title>DatabaseModule&#45;&gt;AppModule</title>
<path fill="none" stroke="black" d="M927,-122.24C927,-137.57 927,-157 927,-157 927,-157 776.06,-157 776.06,-157"/>
<polygon fill="black" stroke="black" points="776.06,-153.5 766.06,-157 776.06,-160.5 776.06,-153.5"/>
</g>
<!-- NotificationModule -->
<g id="node6" class="node">
<title>NotificationModule</title>
<polygon fill="#8dd3c7" stroke="black" points="853.7,-122 850.7,-126 829.7,-126 826.7,-122 726.3,-122 726.3,-86 853.7,-86 853.7,-122"/>
<text text-anchor="middle" x="790" y="-99.8" font-family="Times,serif" font-size="14.00">NotificationModule</text>
</g>
<!-- NotificationModule&#45;&gt;AppModule -->
<g id="edge6" class="edge">
<title>NotificationModule&#45;&gt;AppModule</title>
<path fill="none" stroke="black" d="M746.11,-122.11C746.11,-122.11 746.11,-140.99 746.11,-140.99"/>
<polygon fill="black" stroke="black" points="742.61,-140.99 746.11,-150.99 749.61,-140.99 742.61,-140.99"/>
</g>
<!-- ProjectModule -->
<g id="node7" class="node">
<title>ProjectModule</title>
<polygon fill="#8dd3c7" stroke="black" points="708.7,-122 705.7,-126 684.7,-126 681.7,-122 609.3,-122 609.3,-86 708.7,-86 708.7,-122"/>
<text text-anchor="middle" x="659" y="-99.8" font-family="Times,serif" font-size="14.00">ProjectModule</text>
</g>
<!-- ProjectModule&#45;&gt;AppModule -->
<g id="edge7" class="edge">
<title>ProjectModule&#45;&gt;AppModule</title>
<path fill="none" stroke="black" d="M695.39,-122.11C695.39,-122.11 695.39,-140.99 695.39,-140.99"/>
<polygon fill="black" stroke="black" points="691.89,-140.99 695.39,-150.99 698.89,-140.99 691.89,-140.99"/>
</g>
<!-- SubtaskModule -->
<g id="node8" class="node">
<title>SubtaskModule</title>
<polygon fill="#8dd3c7" stroke="black" points="590.88,-122 587.88,-126 566.88,-126 563.88,-122 487.12,-122 487.12,-86 590.88,-86 590.88,-122"/>
<text text-anchor="middle" x="539" y="-99.8" font-family="Times,serif" font-size="14.00">SubtaskModule</text>
</g>
<!-- SubtaskModule&#45;&gt;AppModule -->
<g id="edge8" class="edge">
<title>SubtaskModule&#45;&gt;AppModule</title>
<path fill="none" stroke="black" d="M539,-122.24C539,-137.57 539,-157 539,-157 539,-157 672.02,-157 672.02,-157"/>
<polygon fill="black" stroke="black" points="672.02,-160.5 682.02,-157 672.02,-153.5 672.02,-160.5"/>
</g>
<!-- TaskModule -->
<g id="node9" class="node">
<title>TaskModule</title>
<polygon fill="#8dd3c7" stroke="black" points="469.26,-122 466.26,-126 445.26,-126 442.26,-122 382.74,-122 382.74,-86 469.26,-86 469.26,-122"/>
<text text-anchor="middle" x="426" y="-99.8" font-family="Times,serif" font-size="14.00">TaskModule</text>
</g>
<!-- TaskModule&#45;&gt;AppModule -->
<g id="edge9" class="edge">
<title>TaskModule&#45;&gt;AppModule</title>
<path fill="none" stroke="black" d="M426,-122.02C426,-139.37 426,-163 426,-163 426,-163 672.25,-163 672.25,-163"/>
<polygon fill="black" stroke="black" points="672.25,-166.5 682.25,-163 672.25,-159.5 672.25,-166.5"/>
</g>
<!-- TeamsModule -->
<g id="node10" class="node">
<title>TeamsModule</title>
<polygon fill="#8dd3c7" stroke="black" points="364.37,-122 361.37,-126 340.37,-126 337.37,-122 267.63,-122 267.63,-86 364.37,-86 364.37,-122"/>
<text text-anchor="middle" x="316" y="-99.8" font-family="Times,serif" font-size="14.00">TeamsModule</text>
</g>
<!-- TeamsModule&#45;&gt;AppModule -->
<g id="edge10" class="edge">
<title>TeamsModule&#45;&gt;AppModule</title>
<path fill="none" stroke="black" d="M316,-122.11C316,-141.34 316,-169 316,-169 316,-169 672.25,-169 672.25,-169"/>
<polygon fill="black" stroke="black" points="672.25,-172.5 682.25,-169 672.25,-165.5 672.25,-172.5"/>
</g>
<!-- UserModule -->
<g id="node11" class="node">
<title>UserModule</title>
<polygon fill="#8dd3c7" stroke="black" points="249.98,-122 246.98,-126 225.98,-126 222.98,-122 164.02,-122 164.02,-86 249.98,-86 249.98,-122"/>
<text text-anchor="middle" x="207" y="-99.8" font-family="Times,serif" font-size="14.00">UserModule</text>
</g>
<!-- UserModule&#45;&gt;AppModule -->
<g id="edge11" class="edge">
<title>UserModule&#45;&gt;AppModule</title>
<path fill="none" stroke="black" d="M207,-122.28C207,-143.32 207,-175 207,-175 207,-175 672.13,-175 672.13,-175"/>
<polygon fill="black" stroke="black" points="672.13,-178.5 682.13,-175 672.13,-171.5 672.13,-178.5"/>
</g>
<!-- WorkspaceModule -->
<g id="node12" class="node">
<title>WorkspaceModule</title>
<polygon fill="#8dd3c7" stroke="black" points="146.01,-122 143.01,-126 122.01,-126 119.01,-122 23.99,-122 23.99,-86 146.01,-86 146.01,-122"/>
<text text-anchor="middle" x="85" y="-99.8" font-family="Times,serif" font-size="14.00">WorkspaceModule</text>
</g>
<!-- WorkspaceModule&#45;&gt;AppModule -->
<g id="edge12" class="edge">
<title>WorkspaceModule&#45;&gt;AppModule</title>
<path fill="none" stroke="black" d="M85,-122.09C85,-145.13 85,-182 85,-182 85,-182 672.07,-182 672.07,-182"/>
<polygon fill="black" stroke="black" points="672.07,-185.5 682.07,-182 672.07,-178.5 672.07,-185.5"/>
</g>
</g>
</svg>
