<?xml version="1.0" encoding="UTF-8" standalone="no"?>
<!DOCTYPE svg PUBLIC "-//W3C//DTD SVG 1.1//EN"
 "http://www.w3.org/Graphics/SVG/1.1/DTD/svg11.dtd">
<!-- Generated by graphviz version 2.47.0 (20210316.0004)
 -->
<!-- Title: dependencies Pages: 1 -->
<svg width="504pt" height="284pt"
 viewBox="0.00 0.00 504.00 284.00" xmlns="http://www.w3.org/2000/svg" xmlns:xlink="http://www.w3.org/1999/xlink">
<g id="graph0" class="graph" transform="scale(1 1) rotate(0) translate(4 280)">
<title>dependencies</title>
<polygon fill="white" stroke="transparent" points="-4,4 -4,-280 500,-280 500,4 -4,4"/>
<text text-anchor="start" x="227.01" y="-42.4" font-family="Times-12" font-weight="bold" font-size="14.00">Legend</text>
<polygon fill="#ffffb3" stroke="transparent" points="14,-10 14,-30 34,-30 34,-10 14,-10"/>
<text text-anchor="start" x="37.63" y="-15.4" font-family="Times-12" font-size="14.00"> &#160;Declarations</text>
<polygon fill="#8dd3c7" stroke="transparent" points="127,-10 127,-30 147,-30 147,-10 127,-10"/>
<text text-anchor="start" x="150.73" y="-15.4" font-family="Times-12" font-size="14.00"> &#160;Module</text>
<polygon fill="#80b1d3" stroke="transparent" points="213,-10 213,-30 233,-30 233,-10 213,-10"/>
<text text-anchor="start" x="236.78" y="-15.4" font-family="Times-12" font-size="14.00"> &#160;Bootstrap</text>
<polygon fill="#fdb462" stroke="transparent" points="310,-10 310,-30 330,-30 330,-10 310,-10"/>
<text text-anchor="start" x="333.67" y="-15.4" font-family="Times-12" font-size="14.00"> &#160;Providers</text>
<polygon fill="#fb8072" stroke="transparent" points="406,-10 406,-30 426,-30 426,-10 406,-10"/>
<text text-anchor="start" x="429.73" y="-15.4" font-family="Times-12" font-size="14.00"> &#160;Exports</text>
<g id="clust1" class="cluster">
<title>cluster_CommitmentsModule</title>
<polygon fill="none" stroke="black" stroke-dasharray="1,5" points="43,-70 43,-268 453,-268 453,-70 43,-70"/>
</g>
<g id="clust6" class="cluster">
<title>cluster_CommitmentsModule_providers</title>
<polygon fill="none" stroke="black" points="51,-78 51,-130 445,-130 445,-78 51,-78"/>
</g>
<g id="clust4" class="cluster">
<title>cluster_CommitmentsModule_exports</title>
<polygon fill="none" stroke="black" points="175,-208 175,-260 331,-260 331,-208 175,-208"/>
</g>
<!-- CommitmentsService  -->
<g id="node1" class="node">
<title>CommitmentsService </title>
<polygon fill="#fb8072" stroke="black" points="323.32,-252 182.68,-252 182.68,-216 323.32,-216 323.32,-252"/>
<text text-anchor="middle" x="253" y="-229.8" font-family="Times,serif" font-size="14.00">CommitmentsService </text>
</g>
<!-- CommitmentsModule -->
<g id="node2" class="node">
<title>CommitmentsModule</title>
<polygon fill="#8dd3c7" stroke="black" points="322.39,-187 319.39,-191 298.39,-191 295.39,-187 183.61,-187 183.61,-151 322.39,-151 322.39,-187"/>
<text text-anchor="middle" x="253" y="-164.8" font-family="Times,serif" font-size="14.00">CommitmentsModule</text>
</g>
<!-- CommitmentsModule&#45;&gt;CommitmentsService  -->
<g id="edge1" class="edge">
<title>CommitmentsModule&#45;&gt;CommitmentsService </title>
<path fill="none" stroke="black" stroke-dasharray="5,2" d="M253,-187.11C253,-187.11 253,-205.99 253,-205.99"/>
<polygon fill="black" stroke="black" points="249.5,-205.99 253,-215.99 256.5,-205.99 249.5,-205.99"/>
</g>
<!-- CommitmentsCron -->
<g id="node3" class="node">
<title>CommitmentsCron</title>
<ellipse fill="#fdb462" stroke="black" cx="352" cy="-104" rx="85.15" ry="18"/>
<text text-anchor="middle" x="352" y="-99.8" font-family="Times,serif" font-size="14.00">CommitmentsCron</text>
</g>
<!-- CommitmentsCron&#45;&gt;CommitmentsModule -->
<g id="edge2" class="edge">
<title>CommitmentsCron&#45;&gt;CommitmentsModule</title>
<path fill="none" stroke="black" d="M294.68,-117.47C294.68,-117.47 294.68,-140.86 294.68,-140.86"/>
<polygon fill="black" stroke="black" points="291.18,-140.86 294.68,-150.86 298.18,-140.86 291.18,-140.86"/>
</g>
<!-- CommitmentsService -->
<g id="node4" class="node">
<title>CommitmentsService</title>
<ellipse fill="#fdb462" stroke="black" cx="154" cy="-104" rx="94.94" ry="18"/>
<text text-anchor="middle" x="154" y="-99.8" font-family="Times,serif" font-size="14.00">CommitmentsService</text>
</g>
<!-- CommitmentsService&#45;&gt;CommitmentsModule -->
<g id="edge3" class="edge">
<title>CommitmentsService&#45;&gt;CommitmentsModule</title>
<path fill="none" stroke="black" d="M216.14,-117.78C216.14,-117.78 216.14,-140.55 216.14,-140.55"/>
<polygon fill="black" stroke="black" points="212.64,-140.55 216.14,-150.55 219.64,-140.55 212.64,-140.55"/>
</g>
</g>
</svg>
